<svg width="314" height="81" viewBox="0 0 314 81" fill="none" xmlns="http://www.w3.org/2000/svg">
<path d="M76.8556 12.2734L77.8913 79.6574L61.4773 79.9097L60.8561 39.4985L46.407 80.1413L33.1606 80.3449L17.3718 40.0708L17.9944 80.578L1.58033 80.8303L0.544617 13.4463L19.9343 13.1483L39.5611 59.5081L57.5619 12.5699L76.8556 12.2734Z" fill="white"/>
<path d="M86.0182 52.6493C85.9336 47.146 86.8832 42.2988 88.8671 38.1078C90.9149 33.9159 93.7134 30.6725 97.2625 28.3777C100.812 26.0828 104.794 24.9015 109.209 24.8336C112.985 24.7756 116.292 25.4929 119.132 26.9854C122.035 28.477 124.274 30.4588 125.848 32.9309L125.731 25.3478L142.145 25.0955L142.969 78.6572L126.555 78.9095L126.438 71.3263C124.877 73.8466 122.668 75.8968 119.812 77.4769C117.02 79.056 113.736 79.8746 109.96 79.9326C105.609 79.9995 101.624 78.9406 98.0061 76.7559C94.3871 74.5073 91.4898 71.3194 89.3141 67.1924C87.2014 63.0004 86.1028 58.1527 86.0182 52.6493ZM126.143 52.1286C126.08 48.0331 124.878 44.8192 122.538 42.4869C120.262 40.1536 117.492 39.012 114.229 39.0622C110.965 39.1123 108.2 40.339 105.932 42.7421C103.728 45.0803 102.657 48.2971 102.72 52.3926C102.783 56.4881 103.953 59.7345 106.23 62.1318C108.57 64.4641 111.372 65.6052 114.636 65.555C117.9 65.5049 120.633 64.2787 122.836 61.8766C125.104 59.4735 126.206 56.2241 126.143 52.1286Z" fill="white"/>
<path d="M184.482 64.0974L184.696 78.0158L176.345 78.1442C170.394 78.2356 165.732 76.8671 162.36 74.0386C158.987 71.1461 157.25 66.4042 157.149 59.813L156.821 38.5035L150.294 38.6039L150.085 24.9735L156.612 24.8731L156.411 11.8187L172.825 11.5664L173.026 24.6208L183.777 24.4556L183.986 38.086L173.235 38.2512L173.566 59.7527C173.591 61.3525 173.992 62.4985 174.771 63.1906C175.55 63.8827 176.835 64.215 178.627 64.1874L184.482 64.0974Z" fill="white"/>
<path d="M209.567 32.9883C211.441 30.0151 213.806 27.6745 216.66 25.9664C219.513 24.1944 222.699 23.2813 226.219 23.2272L226.486 40.6011L221.974 40.6705C217.879 40.7334 214.821 41.6765 212.801 43.4998C210.78 45.2591 209.803 48.3464 209.871 52.7619L210.253 77.623L193.839 77.8753L193.016 24.3136L209.43 24.0613L209.567 32.9883Z" fill="white"/>
<path d="M242.243 17.9883C239.363 18.0326 236.983 17.2371 235.101 15.6018C233.283 13.9015 232.355 11.8035 232.316 9.30784C232.277 6.74814 233.14 4.62262 234.906 2.93127C236.736 1.17495 239.09 0.274663 241.97 0.230402C244.785 0.187124 247.102 1.01561 248.921 2.71587C250.802 4.35115 251.763 6.44864 251.802 9.00834C251.84 11.504 250.945 13.6301 249.116 15.3864C247.349 17.0777 245.058 17.945 242.243 17.9883ZM250.487 23.4302L251.311 76.9919L234.897 77.2442L234.073 23.6825L250.487 23.4302Z" fill="white"/>
<path d="M294.882 76.3222L284.382 61.6018L275.972 76.6129L258.214 76.8858L275.456 49.2576L256.911 23.3315L275.341 23.0482L285.839 37.6726L294.251 22.7576L312.009 22.4846L294.473 49.7334L313.312 76.0389L294.882 76.3222Z" fill="white"/>
</svg>
